<!-- Source: https://en.m.wikipedia.org/wiki/File:Heart_Pirates_Jolly_Roger.svg -->
<!-- Changed h and w to 240 -->
<!-- Changed fill value -->
<!-- Licensed under Creative Commons -->
<svg id="svg" xmlns="http://www.w3.org/2000/svg" xmlns:xlink="http://www.w3.org/1999/xlink" width="240" height="240" viewBox="0, 0, 400,400"><g id="svgg"><path id="path0" d="M183.203 32.904 C 165.073 34.608,139.200 41.835,140.727 44.767 C 144.802 52.594,147.979 57.074,149.136 56.626 C 156.920 53.608,175.710 49.529,185.352 48.765 L 192.188 48.223 192.188 62.228 L 192.188 76.234 182.617 77.549 C 149.386 82.118,111.560 105.597,97.790 130.203 C 97.156 131.335,96.540 131.166,92.482 128.744 C 89.957 127.237,84.457 124.006,80.259 121.562 L 72.628 117.120 75.120 113.443 C 79.164 107.477,83.452 102.374,90.361 95.305 L 96.859 88.657 92.881 82.024 C 90.694 78.376,88.753 75.233,88.568 75.041 C 88.045 74.495,75.388 87.256,70.147 93.613 C 54.796 112.234,42.313 137.196,36.676 160.547 C 34.333 170.254,33.874 169.622,43.065 169.363 L 50.974 169.141 53.553 159.766 C 56.373 149.517,62.487 133.662,64.507 131.360 C 64.741 131.094,86.131 143.207,87.991 144.658 C 88.618 145.148,87.977 147.420,85.762 152.556 C 72.278 183.820,73.278 218.724,88.677 254.297 C 88.956 254.942,65.984 268.750,64.632 268.750 C 63.319 268.750,54.138 243.848,52.102 234.766 L 51.051 230.078 43.104 229.855 C 33.659 229.591,34.108 228.641,37.485 241.737 C 45.216 271.721,61.435 299.379,83.958 320.983 L 90.765 327.514 94.938 320.593 L 99.110 313.672 92.185 306.641 C 85.320 299.671,81.161 294.760,75.542 286.986 L 72.629 282.957 75.182 281.413 C 82.540 276.962,97.088 268.712,97.226 268.911 C 118.538 299.683,150.695 319.011,187.305 323.052 L 192.188 323.591 192.188 337.577 L 192.188 351.563 189.258 351.562 C 182.582 351.562,159.492 346.925,152.166 344.114 C 150.814 343.595,142.538 356.913,143.571 357.946 C 143.886 358.261,148.361 359.729,153.517 361.208 C 185.003 370.245,217.495 369.988,249.219 360.453 C 252.871 359.355,256.139 358.190,256.481 357.864 C 257.527 356.868,249.163 343.604,247.816 344.121 C 240.333 346.993,217.568 351.562,210.742 351.562 L 207.813 351.563 207.813 337.577 L 207.813 323.591 212.695 323.052 C 249.007 319.044,285.238 297.269,302.832 268.881 C 302.980 268.643,311.662 273.572,322.874 280.260 L 327.389 282.953 324.525 286.984 C 319.501 294.056,313.585 300.997,307.189 307.324 L 300.969 313.475 304.879 320.019 C 309.617 327.946,308.938 327.917,316.579 320.508 C 338.805 298.955,355.146 270.904,362.595 241.518 C 365.835 228.736,366.280 229.688,357.061 229.688 L 349.279 229.688 348.426 233.008 C 344.971 246.454,336.828 268.750,335.371 268.750 C 334.892 268.750,313.343 256.383,312.009 255.342 C 311.381 254.852,311.990 252.656,314.127 247.699 C 326.787 218.334,326.746 179.802,314.026 151.748 C 312.757 148.949,311.719 146.209,311.719 145.658 C 311.719 144.754,335.006 130.797,335.526 131.390 C 337.719 133.892,344.194 150.804,346.826 160.906 L 348.972 169.141 356.908 169.363 C 362.967 169.533,364.844 169.348,364.843 168.582 C 364.832 157.922,351.780 125.422,340.688 108.436 C 332.678 96.170,314.467 75.000,311.924 75.000 C 311.220 75.000,303.906 86.968,303.906 88.121 C 303.906 88.541,306.063 91.122,308.700 93.856 C 314.169 99.529,321.203 108.048,324.875 113.447 L 327.378 117.129 325.603 118.229 C 324.627 118.834,320.313 121.353,316.016 123.826 C 311.719 126.300,307.095 128.989,305.741 129.803 L 303.280 131.282 298.210 124.790 C 277.879 98.753,249.049 81.903,217.383 77.549 L 207.813 76.234 207.813 62.220 L 207.813 48.207 214.560 48.726 C 223.982 49.450,243.064 53.602,250.856 56.623 C 251.878 57.019,260.156 45.195,260.156 43.339 C 260.156 43.178,256.377 41.828,251.758 40.338 C 229.930 33.297,206.287 30.733,183.203 32.904 M222.656 94.408 C 269.483 105.231,302.688 142.944,307.397 190.654 L 307.901 195.762 304.963 197.163 C 247.896 224.376,173.602 225.388,103.190 199.910 C 97.389 197.811,92.492 196.094,92.307 196.094 C 91.627 196.094,93.107 183.757,94.651 176.563 C 106.869 119.623,166.411 81.408,222.656 94.408 M142.969 134.075 C 113.146 139.223,101.698 173.541,122.869 194.333 C 150.875 221.839,196.140 188.798,178.901 153.433 C 172.608 140.525,156.349 131.765,142.969 134.075 M248.047 134.116 C 218.996 138.649,207.286 173.387,227.870 193.971 C 248.337 214.437,282.691 203.203,287.625 174.431 C 291.475 151.980,270.499 130.614,248.047 134.116 M195.862 198.903 C 189.087 202.577,192.167 213.281,200.000 213.281 C 208.082 213.281,211.009 202.501,203.922 198.836 C 201.069 197.361,198.670 197.381,195.862 198.903 M106.641 217.865 L 119.922 222.386 120.128 247.236 C 120.364 275.631,120.961 274.189,113.255 263.838 C 103.529 250.774,92.969 224.613,92.969 213.586 C 92.969 213.178,91.765 212.801,106.641 217.865 M306.699 215.820 C 303.355 232.061,301.752 237.098,296.692 247.266 C 293.103 254.478,286.536 264.616,282.524 269.141 L 279.753 272.266 279.720 247.955 L 279.688 223.644 290.430 219.936 C 296.338 217.896,302.051 215.755,303.125 215.176 C 306.044 213.605,307.115 213.798,306.699 215.820 M149.609 229.311 C 154.766 230.312,161.006 231.374,163.477 231.671 L 167.969 232.211 167.969 267.626 L 167.969 303.041 163.867 301.628 C 158.232 299.687,145.860 293.396,140.430 289.710 L 135.938 286.661 135.938 256.527 L 135.938 226.393 138.086 226.942 C 139.268 227.244,144.453 228.310,149.609 229.311 M264.063 257.355 L 264.063 286.586 260.352 289.294 C 255.982 292.483,241.984 299.612,236.133 301.628 L 232.031 303.041 232.031 268.074 L 232.031 233.107 240.039 232.128 C 244.443 231.589,250.859 230.511,254.297 229.731 C 257.734 228.952,261.338 228.271,262.305 228.219 L 264.063 228.125 264.063 257.355 M216.219 270.265 C 216.335 290.551,216.121 306.066,215.720 306.468 C 214.725 307.463,197.587 308.136,190.400 307.463 L 184.375 306.898 184.375 270.620 L 184.375 234.343 200.195 234.554 L 216.016 234.766 216.219 270.265" stroke="none" fill="#ffc4f7" fill-rule="evenodd"/></g></svg>
